<?xml version="1.0" standalone="no"?>
<!DOCTYPE svg PUBLIC "-//W3C//DTD SVG 20010904//EN"
 "http://www.w3.org/TR/2001/REC-SVG-20010904/DTD/svg10.dtd">
<svg version="1.0" xmlns="http://www.w3.org/2000/svg"
 width="500.000000pt" height="500.000000pt" viewBox="0 0 500.000000 500.000000"
 preserveAspectRatio="xMidYMid meet">

<g transform="translate(0.000000,500.000000) scale(0.100000,-0.100000)"
fill="#000000" stroke="none">
<path d="M1400 2820 c-5 -19 -14 -65 -20 -102 l-12 -68 -68 -20 c-77 -23 -215
-83 -224 -98 -3 -6 10 -19 29 -29 19 -10 74 -40 121 -68 69 -41 84 -54 80 -70
-2 -11 -20 -95 -39 -187 -20 -92 -38 -177 -42 -188 -6 -19 -2 -20 140 -20 125
0 153 3 194 20 l47 21 23 102 c34 150 21 139 161 131 107 -6 126 -5 188 16 92
29 126 64 147 150 76 324 77 343 19 400 l-36 35 -349 5 -350 5 -9 -35z m450
-137 c0 -16 -15 -93 -34 -173 l-33 -145 -37 -3 c-65 -6 -66 -4 -41 105 12 54
27 127 34 163 7 36 15 68 17 72 3 5 25 8 50 8 41 0 44 -2 44 -27z"/>
<path d="M2393 2849 c-15 -3 -38 -11 -51 -18 -30 -16 -82 -89 -82 -115 0 -12
-13 -82 -29 -156 -17 -74 -45 -200 -62 -278 -40 -181 -43 -252 -11 -284 22
-23 26 -23 312 -26 190 -2 303 1 327 8 66 19 92 64 129 218 18 75 33 147 34
160 l0 22 -204 0 -203 0 -7 -39 c-3 -22 -9 -46 -12 -55 -5 -13 2 -16 38 -16
25 0 47 -2 50 -5 3 -3 2 -23 -3 -43 -4 -20 -11 -54 -14 -74 l-6 -38 -84 0
c-47 0 -85 3 -85 8 0 7 30 144 91 417 16 72 29 140 29 153 0 21 3 22 86 22
l87 0 -6 -32 c-3 -18 -9 -48 -13 -65 l-6 -33 133 0 c155 0 178 5 184 34 27
134 28 151 11 183 -9 18 -24 37 -34 42 -20 11 -554 20 -599 10z"/>
<path d="M3218 2825 c-20 -14 -43 -25 -51 -25 -21 0 -77 -75 -83 -112 -3 -18
-18 -91 -34 -163 -80 -367 -91 -425 -85 -444 9 -29 63 -80 102 -97 18 -8 61
-14 95 -14 l63 0 -25 -20 c-14 -11 -69 -42 -124 -70 -54 -28 -106 -55 -115
-60 -84 -44 -332 -119 -521 -157 -119 -23 -164 -27 -374 -31 -151 -2 -269 0
-320 8 -219 31 -401 101 -507 195 -42 37 -99 109 -99 124 0 6 -4 19 -9 29 -6
9 -13 33 -16 53 l-6 37 -77 6 c-42 3 -117 9 -166 12 l-88 7 7 -64 c21 -201
214 -378 527 -484 194 -66 479 -102 718 -90 259 13 577 72 760 142 94 36 219
93 262 120 21 13 40 23 43 23 13 0 135 87 212 152 l82 68 110 0 110 0 10 38
c19 65 16 70 -44 87 -30 9 -55 20 -55 24 0 4 17 32 38 63 53 78 54 79 136 223
69 121 94 175 83 175 -3 0 -22 -30 -43 -67 -42 -76 -136 -216 -168 -251 -12
-13 -50 -52 -85 -88 -63 -63 -66 -64 -118 -64 -50 0 -53 1 -53 25 0 14 13 81
29 148 66 276 91 386 91 406 0 24 -4 23 115 22 58 -1 115 5 159 17 l70 18 11
52 12 52 -271 0 -271 0 -37 -25z m-2004 -1036 c45 -30 60 -59 31 -59 -19 0
-58 38 -50 49 2 5 -4 11 -15 14 -11 3 -20 10 -20 16 0 16 4 14 54 -20z"/>
<path d="M3857 2826 c-21 -32 -18 -41 7 -23 10 7 17 22 15 32 -4 17 -6 15 -22
-9z"/>
<path d="M3809 2714 c-32 -49 -43 -78 -26 -67 12 7 17 9 37 12 10 1 24 63 18
82 -2 6 -15 -6 -29 -27z"/>
<path d="M3785 2619 c-4 -6 -5 -12 -2 -15 2 -3 7 2 10 11 7 17 1 20 -8 4z"/>
<path d="M958 2448 c-119 -105 -123 -96 59 -145 l156 -42 56 56 c31 31 51 58
44 60 -6 2 -59 33 -118 69 -60 35 -112 64 -117 64 -4 0 -40 -28 -80 -62z"/>
<path d="M818 2268 c-15 -29 -28 -71 -30 -93 l-3 -40 145 -8 c80 -4 156 -6
169 -5 25 3 25 4 52 107 3 11 -31 24 -141 53 -80 20 -150 37 -156 38 -6 0 -22
-24 -36 -52z"/>
</g>
</svg>
