<?xml version="1.0" standalone="no"?>
<!DOCTYPE svg PUBLIC "-//W3C//DTD SVG 20010904//EN"
 "http://www.w3.org/TR/2001/REC-SVG-20010904/DTD/svg10.dtd">
<svg version="1.0" xmlns="http://www.w3.org/2000/svg"
 width="2560.000000pt" height="1657.000000pt" viewBox="0 0 2560.000000 1657.000000"
 preserveAspectRatio="xMidYMid meet">

<g transform="translate(0.000000,1657.000000) scale(0.100000,-0.100000)"
fill="#000000" stroke="none">
<path d="M16593 9832 c-22 -37 -51 -85 -64 -107 l-24 -40 27 18 c15 9 38 17 51 17 22 0 26 7 41 86 10 47 16 87 14 89 -2 2 -22 -26 -45 -63z"/>
<path d="M10557 9853 c-4 -7 -107 -477 -107 -489 0 -2 -26 -11 -57 -20 -132 -36 -348 -120 -496 -192 -87 -42 -162 -81 -167 -87 -8 -10 53 -50 432 -275 76
-45 140 -85 142 -89 4 -6 -12 -88 -95 -476 -79 -371 -109 -517 -109 -530 0 -13 48 -15 354 -15 l354 0 120 60 c71 35 123 66 126 77 3 10 24 106 47 213 22
107 47 224 55 260 8 36 14 66 14 67 0 1 165 3 368 5 l367 4 83 32 c114 44 150 63 203 110 74 66 102 135 158 397 136 628 140 659 101 740 -27 56 -137 160
-197 188 l-48 22 -822 3 c-452 1 -824 -1 -826 -5z m1100 -365 c-3 -13 -26 -120 -51 -238 -25 -118 -64 -298 -86 -400 -22 -101 -40 -186 -40 -187 0 -2
-54 -3 -120 -3 -108 0 -120 2 -120 18 0 15 20 111 111 537 17 77 37 175 46 218 l16 77 125 0 c124 0 124 0 119 -22z"/>
<path d="M12970 9846 c-85 -19 -129 -44 -201 -115 -77 -77 -104 -140 -144
-336 -13 -66 -38 -185 -55 -265 -17 -80 -39 -185 -50 -235 -10 -49 -57 -273
-104 -497 -94 -448 -101 -509 -65 -581 27 -53 61 -84 119 -111 44 -21 55 -21
745 -21 664 0 703 1 750 19 102 39 183 110 234 205 29 56 43 112 127 516 13
66 31 147 39 180 8 33 11 63 7 67 -22 21 -175 29 -568 27 -232 -1 -426 -4
-431 -8 -6 -3 -13 -22 -16 -41 -3 -19 -13 -66 -21 -105 -9 -38 -16 -85 -16
-102 l0 -33 115 0 c103 0 115 -2 115 -18 0 -9 -14 -78 -30 -152 -17 -74 -33
-150 -37 -167 l-6 -33 -203 0 c-112 0 -204 2 -204 5 0 7 67 326 81 384 5 24
30 141 55 260 25 119 53 254 64 301 11 47 40 181 64 299 25 118 48 216 50 219
5 4 398 3 402 -1 1 -1 -11 -63 -26 -137 -15 -74 -29 -144 -31 -155 -4 -20 2
-20 321 -23 280 -2 333 0 380 14 30 9 58 19 62 23 3 3 23 90 44 193 35 173 37
190 25 241 -16 74 -59 130 -123 164 l-53 28 -680 2 c-509 1 -694 -1 -735 -11z"/>
<path d="M15160 9850 c-63 -12 -100 -27 -219 -90 -113 -60 -193 -129 -228
-195 -21 -41 -51 -154 -78 -287 -13 -67 -47 -229 -111 -528 -21 -99 -72 -343
-128 -610 -21 -100 -20 -166 4 -215 25 -52 31 -59 119 -133 120 -100 137 -105
336 -112 l170 -5 -50 -30 c-74 -44 -75 -45 -192 -111 -125 -72 -438 -229 -533
-269 -332 -139 -853 -281 -1299 -355 -351 -57 -451 -65 -886 -65 -402 0 -466
4 -765 46 -231 33 -474 92 -595 145 -16 7 -66 27 -110 45 -193 78 -384 200
-513 327 -149 147 -222 282 -245 454 l-12 93 -220 12 c-121 6 -292 16 -380 22
-88 6 -173 11 -189 11 l-29 0 6 -107 c16 -256 130 -480 353 -693 318 -303 790
-526 1394 -659 541 -119 1399 -128 2110 -22 439 66 977 212 1275 346 17 8 59
26 95 40 98 41 330 160 465 238 221 130 455 301 632 462 l82 75 276 0 c220 0
277 3 281 13 6 16 53 252 51 253 -1 0 -64 22 -141 47 -76 25 -140 48 -143 50
-2 3 40 72 95 153 136 205 247 384 319 514 11 19 51 91 90 160 69 124 139 287
190 441 21 65 29 78 43 74 20 -6 18 -13 55 164 14 68 24 125 21 128 -3 3 -20
-19 -38 -48 -73 -118 -166 -274 -163 -277 1 -1 20 8 43 20 22 13 43 20 46 17
16 -16 -134 -313 -267 -529 -177 -286 -325 -475 -540 -687 l-134 -133 -141 0
c-117 0 -142 3 -142 14 0 8 13 70 29 138 16 68 34 148 40 178 6 30 29 134 51
230 22 96 60 267 85 380 25 113 52 232 60 265 8 33 24 105 36 160 11 55 26
103 32 107 6 4 130 7 275 8 257 1 267 1 387 30 67 17 130 30 138 30 9 0 19 5
23 11 7 12 53 233 54 257 0 9 -128 12 -612 11 -337 -1 -633 -5 -658 -9z
m-5150 -2568 c26 -32 25 -42 -3 -42 -28 0 -72 43 -64 64 8 20 43 9 67 -22z
m113 -68 c56 -30 101 -94 79 -116 -14 -14 -69 -3 -110 22 -32 20 -72 74 -72
98 0 18 65 15 103 -4z"/>
<path d="M9568 8960 c-45 -33 -116 -90 -157 -127 -89 -81 -204 -214 -194 -223
5 -4 71 -24 148 -45 77 -21 226 -61 330 -90 313 -87 290 -84 317 -49 50 65
129 145 212 216 l29 25 -59 35 c-32 19 -117 69 -189 110 -71 42 -181 105 -242
141 l-113 66 -82 -59z"/>
<path d="M15750 8716 c0 -8 5 -18 10 -21 6 -3 10 1 10 9 0 8 -4 18 -10 21 -5
3 -10 -1 -10 -9z"/>
<path d="M9162 8538 c-19 -24 -79 -153 -100 -213 -28 -84 -55 -212 -48 -230 4
-12 27 -15 113 -15 59 0 242 -7 406 -16 177 -10 302 -13 308 -7 5 5 18 44 29
86 10 43 33 107 51 143 17 36 29 67 27 69 -1 2 -120 33 -263 70 -143 36 -311
80 -372 96 -127 33 -137 34 -151 17z"/>
<path d="M8974 5435 c-183 -34 -307 -143 -357 -315 -16 -54 -20 -328 -6 -375
61 -208 169 -307 374 -341 227 -38 458 16 566 133 50 54 100 160 102 217 l2
41 -158 3 c-143 2 -158 1 -163 -15 -39 -127 -115 -177 -239 -158 -59 8 -124
69 -142 132 -17 56 -17 277 0 323 31 85 78 128 153 136 101 12 172 -29 214
-122 l19 -45 153 3 153 3 3 33 c4 41 -54 164 -99 211 -46 45 -110 89 -161 107
-119 43 -278 54 -414 29z"/>
<path d="M10603 5435 c-251 -46 -383 -222 -383 -510 0 -302 129 -475 388 -521
262 -46 504 28 603 184 104 165 112 449 18 634 -89 174 -351 263 -626 213z
m238 -225 c49 -14 105 -73 125 -132 19 -59 22 -232 5 -298 -29 -106 -96 -159
-201 -160 -84 0 -124 15 -167 64 -49 56 -63 110 -63 246 0 94 3 117 24 162 28
63 72 107 118 118 48 11 118 11 159 0z"/>
<path d="M12790 5435 c-185 -40 -260 -128 -260 -303 0 -189 82 -267 340 -322
181 -39 247 -80 222 -135 -16 -34 -68 -55 -137 -55 -78 0 -121 20 -142 67 -10
21 -22 41 -28 45 -14 11 -257 9 -274 -1 -19 -12 -9 -95 18 -155 52 -119 207
-186 427 -186 150 0 293 38 353 93 54 50 91 140 91 220 0 19 -9 64 -20 100
-34 109 -114 170 -285 218 -195 53 -217 61 -248 89 -28 25 -30 31 -22 56 15
42 49 56 124 51 71 -5 97 -23 115 -79 l11 -33 142 -3 142 -3 7 25 c14 57 -30
178 -83 228 -85 81 -322 121 -493 83z"/>
<path d="M14270 5436 c-190 -35 -315 -133 -370 -292 -33 -96 -40 -297 -15
-393 44 -163 109 -252 225 -307 172 -83 434 -65 551 37 22 19 24 19 36 3 7
-10 13 -25 13 -35 0 -32 25 -40 121 -37 l94 3 3 255 c1 140 0 265 -3 278 l-5
22 -238 0 c-130 0 -243 -4 -250 -8 -9 -6 -12 -35 -10 -108 l3 -99 98 -3 c89
-2 97 -4 97 -22 0 -30 -70 -93 -118 -107 -95 -29 -187 -8 -252 57 -57 57 -74
116 -73 255 1 141 30 211 106 259 26 16 49 20 117 20 110 0 165 -28 195 -102
l14 -33 153 3 153 3 -3 35 c-1 19 -9 47 -17 64 -8 16 -15 35 -15 43 0 7 -30
44 -67 82 -52 52 -82 73 -128 91 -128 48 -276 61 -415 36z"/>
<path d="M16250 5433 c-112 -21 -208 -71 -269 -140 -58 -65 -75 -98 -102 -194
-24 -86 -26 -282 -4 -344 8 -22 15 -46 15 -53 0 -29 55 -123 95 -165 190 -195
673 -195 845 1 97 109 140 277 119 464 -17 149 -52 231 -130 310 -115 115
-348 165 -569 121z m221 -223 c108 -30 166 -185 139 -372 -21 -147 -74 -207
-189 -216 -117 -8 -178 34 -218 148 -21 57 -17 255 6 315 42 110 142 158 262
125z"/>
<path d="M5692 5422 c-10 -7 -12 -115 -10 -508 l3 -499 165 0 c91 0 173 3 183
7 15 7 17 23 17 138 l0 130 38 0 c92 1 271 21 310 35 148 53 212 154 212 334
0 120 -26 194 -92 257 -94 91 -211 114 -567 114 -135 0 -252 -4 -259 -8z m509
-248 c50 -44 63 -128 30 -193 -24 -46 -61 -63 -127 -59 l-49 3 -3 124 c-1 69
0 131 3 139 8 22 118 12 146 -14z"/>
<path d="M6682 5418 c-9 -9 -12 -132 -12 -494 0 -265 3 -489 6 -498 5 -14 27
-16 148 -15 77 1 155 4 171 8 l30 6 5 135 5 135 29 0 c26 0 34 -8 77 -90 27
-49 56 -106 66 -125 34 -71 31 -70 188 -70 143 0 205 6 205 20 0 4 -39 76 -87
160 l-87 152 46 42 c66 60 93 102 112 178 20 84 20 141 0 204 -27 82 -44 114
-84 154 -86 86 -208 110 -560 110 -178 0 -249 -3 -258 -12z m479 -228 c70 -19
103 -136 59 -208 -25 -41 -58 -54 -129 -50 l-56 3 -3 119 c-1 66 0 126 2 133
6 16 75 17 127 3z"/>
<path d="M7702 5422 c-10 -7 -12 -115 -10 -508 l3 -499 365 -3 c201 -2 384 0
408 3 l42 6 0 103 c0 99 -1 104 -22 110 -13 3 -116 6 -230 6 -238 0 -228 -4
-228 94 0 86 0 86 215 86 101 0 190 3 199 6 13 5 16 24 16 105 0 54 -1 100 -2
101 -2 1 -97 4 -213 7 l-210 6 -3 57 c-5 102 -14 98 233 98 183 0 216 2 230
16 13 13 15 34 13 107 -3 88 -4 91 -28 98 -35 10 -762 10 -778 1z"/>
<path d="M9785 5418 c-3 -7 -4 -236 -3 -508 l3 -495 120 -3 c66 -2 135 0 153
3 l32 6 0 498 0 499 -22 6 c-13 3 -81 6 -151 6 -93 0 -129 -3 -132 -12z"/>
<path d="M11427 5423 c-13 -12 -7 -634 7 -708 38 -213 192 -325 446 -325 251
0 402 104 449 310 9 40 11 148 9 390 l-3 335 -133 3 -132 3 -10 -27 c-6 -16
-10 -150 -10 -333 1 -168 -2 -321 -6 -339 -10 -50 -61 -98 -112 -107 -67 -11
-127 2 -160 34 -46 46 -52 99 -52 446 0 276 -2 314 -16 319 -21 8 -269 8 -277
-1z"/>
<path d="M15078 5419 c-17 -9 -18 -44 -18 -494 0 -428 2 -485 16 -499 14 -14
58 -16 377 -14 l362 3 3 108 c1 59 1 108 0 109 -2 1 -100 4 -218 7 l-215 6 -3
379 c-1 260 -6 383 -13 393 -14 16 -264 18 -291 2z"/>
<path d="M17080 5422 l-25 -8 -3 -492 -2 -492 26 -10 c42 -16 545 -12 644 5
197 35 281 127 267 295 -8 92 -48 159 -117 195 -16 8 -30 17 -30 20 0 2 16 21
36 42 53 58 66 95 62 188 -3 69 -7 86 -33 125 -36 53 -98 93 -180 116 -48 14
-114 18 -340 20 -154 2 -291 0 -305 -4z m468 -233 c37 -13 57 -55 48 -104 -9
-46 -29 -55 -124 -55 -64 0 -81 3 -86 16 -11 28 -6 130 6 142 15 15 114 16
156 1z m73 -390 c18 -18 21 -30 17 -71 -8 -76 -20 -83 -146 -83 l-107 0 -3 74
c-2 41 -1 80 2 88 4 10 32 13 111 13 94 0 107 -2 126 -21z"/>
<path d="M18382 5423 c-30 -6 -34 -14 -102 -213 -29 -86 -45 -133 -120 -340
-23 -63 -50 -140 -60 -170 -11 -30 -35 -100 -55 -155 -20 -55 -37 -104 -38
-109 -4 -18 67 -26 200 -24 l137 3 31 92 30 93 141 0 140 0 30 -87 c37 -105
26 -100 232 -102 117 -1 144 2 148 14 5 12 -16 77 -81 245 -8 19 -30 80 -50
135 -20 55 -47 127 -60 160 -13 33 -57 150 -97 260 l-74 200 -165 1 c-90 1
-174 0 -187 -3z m194 -489 c34 -105 34 -104 -37 -104 -53 0 -60 2 -56 18 29
105 51 162 60 159 6 -2 21 -35 33 -73z"/>
<path d="M19200 5421 l-35 -6 -3 -489 c-1 -335 1 -493 8 -500 17 -17 781 -21
791 -4 5 7 9 55 9 106 0 90 -1 93 -26 102 -14 6 -110 10 -213 10 -145 0 -191
3 -200 13 -7 10 -12 133 -13 393 l-3 379 -140 1 c-77 1 -156 -1 -175 -5z"/>
<path d="M13088 4162 c-16 -3 -18 -20 -18 -192 0 -104 4 -191 9 -194 5 -4 16
-3 25 0 13 5 16 22 16 85 l0 79 79 0 c94 0 111 -11 111 -73 0 -59 9 -84 30
-90 29 -8 44 7 31 31 -6 11 -11 41 -11 67 0 25 -7 57 -16 71 -15 22 -15 26 -1
42 38 44 28 127 -19 153 -27 16 -190 30 -236 21z m207 -56 c13 -9 19 -26 19
-51 0 -53 -21 -65 -116 -65 l-78 0 0 65 0 65 78 0 c51 0 85 -5 97 -14z"/>
<path d="M13637 4162 c-39 -3 -48 -6 -45 -20 2 -13 16 -18 61 -20 l57 -3 0
-157 c0 -86 4 -163 9 -170 5 -8 17 -12 27 -10 18 3 19 16 22 171 l2 167 56 0
c40 0 56 4 61 15 3 9 3 18 0 22 -7 6 -177 10 -250 5z"/>
<path d="M10380 4141 c-63 -34 -90 -84 -90 -171 0 -84 32 -145 92 -176 35 -18
116 -18 161 1 71 29 113 116 60 123 -16 2 -26 -5 -39 -33 -21 -46 -49 -65 -94
-65 -71 0 -110 53 -110 149 0 134 105 198 187 116 53 -53 107 -42 66 13 -44
60 -161 81 -233 43z"/>
<path d="M10945 4143 c-47 -25 -66 -45 -86 -91 -42 -98 -6 -212 83 -258 35
-18 126 -18 169 0 67 28 109 97 109 180 0 87 -33 143 -102 170 -49 20 -134 20
-173 -1z m155 -40 c57 -33 77 -143 40 -224 -23 -50 -100 -74 -163 -50 -61 23
-88 146 -50 225 28 60 114 84 173 49z"/>
<path d="M11445 4148 c-3 -8 -4 -92 -3 -188 l3 -175 25 0 25 0 3 133 c1 72 6
132 10 132 4 0 45 -61 92 -135 47 -74 91 -137 99 -140 8 -3 22 -3 32 0 18 6
19 20 19 196 l0 189 -25 0 -24 0 -3 -135 c-2 -74 -7 -136 -12 -138 -4 -1 -45
59 -90 133 -76 124 -85 135 -114 138 -20 2 -34 -2 -37 -10z"/>
<path d="M12030 4143 c-39 -27 -49 -45 -50 -89 0 -54 26 -76 115 -99 92 -24
115 -38 115 -74 0 -37 -20 -52 -73 -58 -55 -6 -94 10 -115 47 -30 53 -75 34
-47 -20 32 -61 114 -88 196 -64 60 18 89 53 89 106 0 56 -30 82 -120 102 -96
22 -110 30 -110 66 0 76 144 82 173 8 8 -22 35 -24 43 -4 8 21 -13 55 -49 76
-41 26 -132 27 -167 3z"/>
<path d="M12594 4146 c-71 -31 -107 -100 -102 -192 7 -112 71 -174 178 -174
90 0 143 37 175 122 27 74 10 161 -42 216 -38 39 -148 54 -209 28z m149 -44
c47 -32 56 -52 57 -127 0 -116 -43 -162 -144 -152 -63 6 -101 44 -111 112 -13
84 20 153 85 178 31 12 86 6 113 -11z"/>
<path d="M14084 4147 c-2 -7 -3 -91 -2 -187 l3 -175 28 -3 27 -3 0 190 0 191
-25 0 c-14 0 -28 -6 -31 -13z"/>
<path d="M14390 4024 c0 -153 11 -193 64 -225 42 -26 130 -25 173 1 61 37 68
58 68 215 l0 140 -30 0 -30 0 -5 -148 c-5 -141 -6 -150 -29 -168 -32 -26 -91
-25 -122 2 -23 20 -24 27 -27 170 l-3 149 -30 0 -29 0 0 -136z"/>
<path d="M14915 4148 c-3 -8 -4 -92 -3 -188 l3 -175 28 -3 27 -3 0 122 c0 88
3 120 11 112 6 -6 27 -59 48 -119 36 -106 38 -109 68 -112 38 -4 45 8 88 141
15 48 30 85 33 82 4 -3 5 -50 4 -103 -1 -53 2 -103 6 -110 5 -8 20 -12 33 -10
l24 3 0 185 0 185 -41 3 c-37 3 -42 0 -51 -25 -24 -68 -36 -103 -59 -175 -14
-43 -29 -78 -34 -78 -5 0 -28 62 -53 138 l-44 137 -42 3 c-27 2 -43 -1 -46
-10z"/>
</g>
</svg>
